REM DIRINDEX 1\2,1\3,1\4,1\5
REM DIRNAME "folder01","folder02","folder03","folder04","folder05"
TITLE ""
FILE "P1Q_t_0159-0168.mp3" MP3
  TRACK 01 AUDIO
    TITLE "3:cjc173_1389"
    INDEX 01 00:00:00
  TRACK 02 AUDIO
    TITLE "0:"
    INDEX 01 00:01:29
  TRACK 03 AUDIO
    TITLE "4:cjc173_1390"
    INDEX 01 00:01:51
  TRACK 04 AUDIO
    TITLE "0:"
    INDEX 01 00:02:58
  TRACK 05 AUDIO
    TITLE "5:cjc173_1391"
    INDEX 01 00:03:03
  TRACK 06 AUDIO
    TITLE "0:"
    INDEX 01 00:06:42
  TRACK 07 AUDIO
    TITLE "3:cjc173_1392"
    INDEX 01 00:07:16
  TRACK 08 AUDIO
    TITLE "0:"
    INDEX 01 00:08:33
  TRACK 09 AUDIO
    TITLE "4:cjc173_1393"
    INDEX 01 00:08:57
  TRACK 10 AUDIO
    TITLE "0:"
    INDEX 01 00:11:28
  TRACK 11 AUDIO
    TITLE "5:cjc173_1394"
    INDEX 01 00:11:51
  TRACK 12 AUDIO
    TITLE "0:"
    INDEX 01 00:16:62
  TRACK 13 AUDIO
    TITLE "3:cjc173_1395"
    INDEX 01 00:17:36
  TRACK 14 AUDIO
    TITLE "0:"
    INDEX 01 00:18:49
  TRACK 15 AUDIO
    TITLE "4:cjc173_1396"
    INDEX 01 00:18:71
  TRACK 16 AUDIO
    TITLE "0:"
    INDEX 01 00:21:36
  TRACK 17 AUDIO
    TITLE "5:cjc173_1397"
    INDEX 01 00:21:65
  TRACK 18 AUDIO
    TITLE "0:"
    INDEX 01 00:27:25
  TRACK 19 AUDIO
    TITLE "3:cjc173_1398"
    INDEX 01 00:28:03
  TRACK 20 AUDIO
    TITLE "0:"
    INDEX 01 00:29:20
  TRACK 21 AUDIO
    TITLE "4:cjc173_1399"
    INDEX 01 00:29:41
  TRACK 22 AUDIO
    TITLE "0:"
    INDEX 01 00:31:56
  TRACK 23 AUDIO
    TITLE "5:cjc173_1400"
    INDEX 01 00:32:01
  TRACK 24 AUDIO
    TITLE "0:"
    INDEX 01 00:36:37
  TRACK 25 AUDIO
    TITLE "3:cjc173_1401"
    INDEX 01 00:37:08
  TRACK 26 AUDIO
    TITLE "0:"
    INDEX 01 00:38:19
  TRACK 27 AUDIO
    TITLE "4:cjc173_1402"
    INDEX 01 00:38:40
  TRACK 28 AUDIO
    TITLE "0:"
    INDEX 01 00:42:34
  TRACK 29 AUDIO
    TITLE "5:cjc173_1403"
    INDEX 01 00:42:54
  TRACK 30 AUDIO
    TITLE "0:"
    INDEX 01 00:46:63
  TRACK 31 AUDIO
    TITLE "3:cjc173_1404"
    INDEX 01 00:47:33
  TRACK 32 AUDIO
    TITLE "0:"
    INDEX 01 00:48:45
  TRACK 33 AUDIO
    TITLE "4:cjc173_1405"
    INDEX 01 00:48:64
  TRACK 34 AUDIO
    TITLE "0:"
    INDEX 01 00:51:29
  TRACK 35 AUDIO
    TITLE "5:cjc173_1406"
    INDEX 01 00:51:49
  TRACK 36 AUDIO
    TITLE "0:"
    INDEX 01 00:55:72
  TRACK 37 AUDIO
    TITLE "3:cjc173_1407"
    INDEX 01 00:56:42
  TRACK 38 AUDIO
    TITLE "0:"
    INDEX 01 00:57:53
  TRACK 39 AUDIO
    TITLE "4:cjc173_1408"
    INDEX 01 00:58:00
  TRACK 40 AUDIO
    TITLE "0:"
    INDEX 01 00:58:74
  TRACK 41 AUDIO
    TITLE "5:cjc173_1409"
    INDEX 01 00:59:21
  TRACK 42 AUDIO
    TITLE "0:"
    INDEX 01 01:04:01
  TRACK 43 AUDIO
    TITLE "3:cjc173_1410"
    INDEX 01 01:04:46
  TRACK 44 AUDIO
    TITLE "0:"
    INDEX 01 01:05:72
  TRACK 45 AUDIO
    TITLE "4:cjc173_1411"
    INDEX 01 01:06:17
  TRACK 46 AUDIO
    TITLE "0:"
    INDEX 01 01:07:11
  TRACK 47 AUDIO
    TITLE "5:cjc173_1412"
    INDEX 01 01:07:30
  TRACK 48 AUDIO
    TITLE "0:"
    INDEX 01 01:12:65
  TRACK 49 AUDIO
    TITLE "3:cjc173_1413"
    INDEX 01 01:13:37
  TRACK 50 AUDIO
    TITLE "0:"
    INDEX 01 01:14:52
  TRACK 51 AUDIO
    TITLE "4:cjc173_1414"
    INDEX 01 01:15:00
  TRACK 52 AUDIO
    TITLE "0:"
    INDEX 01 01:17:58
  TRACK 53 AUDIO
    TITLE "5:cjc173_1415"
    INDEX 01 01:18:06
  TRACK 54 AUDIO
    TITLE "0:"
    INDEX 01 01:23:33
  TRACK 55 AUDIO
    TITLE "3:cjc173_1416"
    INDEX 01 01:24:05
  TRACK 56 AUDIO
    TITLE "0:"
    INDEX 01 01:25:26
  TRACK 57 AUDIO
    TITLE "4:cjc173_1417"
    INDEX 01 01:25:48
  TRACK 58 AUDIO
    TITLE "0:"
    INDEX 01 01:28:66
  TRACK 59 AUDIO
    TITLE "5:cjc173_1418"
    INDEX 01 01:29:10
  TRACK 60 AUDIO
    TITLE "0:"
    INDEX 01 01:33:02
